<?xml version="1.0" encoding="utf-8"?>
<!-- Generator: Adobe Illustrator 24.0.1, SVG Export Plug-In . SVG Version: 6.00 Build 0)  -->
<svg version="1.1" id="Layer_1" xmlns="http://www.w3.org/2000/svg" xmlns:xlink="http://www.w3.org/1999/xlink" x="0px" y="0px"
	 viewBox="0 0 500 500" style="enable-background:new 0 0 500 500;" xml:space="preserve">
<style type="text/css">
	.st0{fill:#058FFF;}
</style>
<g>
	<polygon class="st0" points="202.9,246.07 195.96,234.39 188.47,234.39 199.66,252.02 199.66,263.49 206.06,263.49 206.06,251.89 
		217.24,234.39 209.97,234.39 	"/>
	<path class="st0" d="M231.21,234.18l-12.47,29.31h6.53l2.66-6.53h12.31l2.66,6.53h6.69l-12.47-29.31H231.21z M230.21,251.31
		l3.87-9.44l3.87,9.44H230.21z"/>
	<polygon class="st0" points="280.02,234.39 272.29,234.39 260.48,247.11 260.48,234.39 254.08,234.39 254.08,263.49 260.48,263.49 
		260.48,254.59 263.85,251.1 272.87,263.49 280.56,263.49 268.17,246.74 	"/>
	<polygon class="st0" points="310.37,234.39 302.64,234.39 290.83,247.11 290.83,234.39 284.43,234.39 284.43,263.49 290.83,263.49 
		290.83,254.59 294.2,251.1 303.22,263.49 310.91,263.49 298.52,246.74 	"/>
	<path class="st0" d="M324.76,234.18l-12.47,29.31h6.53l2.66-6.53h12.31l2.66,6.53h6.69l-12.47-29.31H324.76z M323.76,251.31
		l3.87-9.44l3.87,9.44H323.76z"/>
	<polygon class="st0" points="370.99,234.39 347.25,234.39 347.25,240 362.76,240 346.75,258.63 346.75,263.49 370.99,263.49 
		370.99,257.88 354.98,257.88 370.99,239.25 	"/>
	<path class="st0" d="M152.1,239.72h1.73c3.51,0,6.71,2.41,7.32,5.87c0.45,2.53-0.44,4.84-2.06,6.41c-1.09,1.05-1.62,2.62-1,4
		c0.47,1.04,1.16,1.59,1.16,1.59c-1.76-0.25-2.99-1.12-3.8-2c-0.97-1.05-2.39-1.56-3.82-1.56l-8.74,0.02
		c-4.09,0-7.38-3.42-7.16-7.56c0.2-3.88,3.68-6.79,8.66-6.79c2.05,0,3.82-1.43,4.24-3.43l2.05-9.64c-10.67,0-19.87,7.51-22,17.99
		c-1.93,9.5,5.51,18.35,15.2,18.35h2.69c-0.45,2.12-2.31,3.63-4.48,3.63h-15.48c-6.51,0-11.28,0.38-12.66,6.74h25.74
		c13.31,0,24.8-9.3,27.58-22.31l5.2-24.39C163.57,226.65,155.7,231.9,152.1,239.72z"/>
	<path class="st0" d="M143.45,245.51c-0.66,0-1.2,0.54-1.2,1.2s0.54,1.2,1.2,1.2s1.2-0.54,1.2-1.2S144.11,245.51,143.45,245.51z"/>
	<path class="st0" d="M147.29,246.72c0,0.66,0.54,1.2,1.2,1.2c0.66,0,1.2-0.54,1.2-1.2s-0.54-1.2-1.2-1.2
		C147.83,245.51,147.29,246.05,147.29,246.72z"/>
	<path class="st0" d="M154.73,246.72c0-0.66-0.54-1.2-1.2-1.2c-0.66,0-1.2,0.54-1.2,1.2s0.54,1.2,1.2,1.2
		C154.19,247.92,154.73,247.38,154.73,246.72z"/>
</g>
</svg>
